# xmcd
#
# Track frame offsets:
#	150
#	15217
#	29401
#	47464
#	65029
#	83120
#	100186
#	118049
#	134307
#	151114
#	171677
#	186547
#	201963
#	217615
#	237511
#	256546
#
# Disc length: 3609 seconds
#
# Revision: 1
# Processed by: cddbd v1.5.2PL0 Copyright (c) Steve Scherf et al.
# Submitted via: audiograbber 1.83.01
#
DISCID=d40e1710
DTITLE=какефас - ажиеяыла
DYEAR=1900
DGENRE=
TTITLE0=лиа цакафиа пеяистеяа
TTITLE1=йастамг цаитаможяуда
TTITLE2=еида поккес аявомтомиес
TTITLE3=цеитомиссес
TTITLE4=ти та жукас та миата соу
TTITLE5=ам л ацапас ма лоу то пеис
TTITLE6=окес ои лекавяоимес
TTITLE7=ацапг лоу танидеьес
TTITLE8=еды то тоуто то выяио
TTITLE9=то памгцуяи
TTITLE10=тсиццама лоу цкуйиа
TTITLE11=то неяы пыс дем л ацапас
TTITLE12=аута та латиа та цкуйа
TTITLE13=ауцеяимос
TTITLE14=лаяциокийо
TTITLE15=маутайиа поу пгцаимете
EXTD=
EXTT0=
EXTT1=
EXTT2=
EXTT3=
EXTT4=
EXTT5=
EXTT6=
EXTT7=
EXTT8=
EXTT9=
EXTT10=
EXTT11=
EXTT12=
EXTT13=
EXTT14=
EXTT15=
PLAYORDER=
